<?xml version="1.0" encoding="UTF-8"?>
<svg width="400" height="400" viewBox="0 0 400 400" fill="none" xmlns="http://www.w3.org/2000/svg">
  <g opacity="0.2">
    <!-- Checkered pattern -->
    <rect x="0" y="0" width="40" height="40" fill="#333333"/>
    <rect x="80" y="0" width="40" height="40" fill="#333333"/>
    <rect x="160" y="0" width="40" height="40" fill="#333333"/>
    <rect x="240" y="0" width="40" height="40" fill="#333333"/>
    <rect x="320" y="0" width="40" height="40" fill="#333333"/>
    
    <rect x="40" y="40" width="40" height="40" fill="#333333"/>
    <rect x="120" y="40" width="40" height="40" fill="#333333"/>
    <rect x="200" y="40" width="40" height="40" fill="#333333"/>
    <rect x="280" y="40" width="40" height="40" fill="#333333"/>
    <rect x="360" y="40" width="40" height="40" fill="#333333"/>
    
    <rect x="0" y="80" width="40" height="40" fill="#333333"/>
    <rect x="80" y="80" width="40" height="40" fill="#333333"/>
    <rect x="160" y="80" width="40" height="40" fill="#333333"/>
    <rect x="240" y="80" width="40" height="40" fill="#333333"/>
    <rect x="320" y="80" width="40" height="40" fill="#333333"/>
    
    <rect x="40" y="120" width="40" height="40" fill="#333333"/>
    <rect x="120" y="120" width="40" height="40" fill="#333333"/>
    <rect x="200" y="120" width="40" height="40" fill="#333333"/>
    <rect x="280" y="120" width="40" height="40" fill="#333333"/>
    <rect x="360" y="120" width="40" height="40" fill="#333333"/>
    
    <rect x="0" y="160" width="40" height="40" fill="#333333"/>
    <rect x="80" y="160" width="40" height="40" fill="#333333"/>
    <rect x="160" y="160" width="40" height="40" fill="#333333"/>
    <rect x="240" y="160" width="40" height="40" fill="#333333"/>
    <rect x="320" y="160" width="40" height="40" fill="#333333"/>
    
    <rect x="40" y="200" width="40" height="40" fill="#333333"/>
    <rect x="120" y="200" width="40" height="40" fill="#333333"/>
    <rect x="200" y="200" width="40" height="40" fill="#333333"/>
    <rect x="280" y="200" width="40" height="40" fill="#333333"/>
    <rect x="360" y="200" width="40" height="40" fill="#333333"/>
    
    <rect x="0" y="240" width="40" height="40" fill="#333333"/>
    <rect x="80" y="240" width="40" height="40" fill="#333333"/>
    <rect x="160" y="240" width="40" height="40" fill="#333333"/>
    <rect x="240" y="240" width="40" height="40" fill="#333333"/>
    <rect x="320" y="240" width="40" height="40" fill="#333333"/>
    
    <rect x="40" y="280" width="40" height="40" fill="#333333"/>
    <rect x="120" y="280" width="40" height="40" fill="#333333"/>
    <rect x="200" y="280" width="40" height="40" fill="#333333"/>
    <rect x="280" y="280" width="40" height="40" fill="#333333"/>
    <rect x="360" y="280" width="40" height="40" fill="#333333"/>
    
    <rect x="0" y="320" width="40" height="40" fill="#333333"/>
    <rect x="80" y="320" width="40" height="40" fill="#333333"/>
    <rect x="160" y="320" width="40" height="40" fill="#333333"/>
    <rect x="240" y="320" width="40" height="40" fill="#333333"/>
    <rect x="320" y="320" width="40" height="40" fill="#333333"/>
    
    <rect x="40" y="360" width="40" height="40" fill="#333333"/>
    <rect x="120" y="360" width="40" height="40" fill="#333333"/>
    <rect x="200" y="360" width="40" height="40" fill="#333333"/>
    <rect x="280" y="360" width="40" height="40" fill="#333333"/>
    <rect x="360" y="360" width="40" height="40" fill="#333333"/>
  </g>
</svg>
