<?xml version="1.0" encoding="UTF-8"?>
<svg width="800" height="300" viewBox="0 0 800 300" fill="none" xmlns="http://www.w3.org/2000/svg">
  <g opacity="0.3">
    <!-- Dotted landscape pattern -->
    <!-- Base line -->
    <circle cx="20" cy="280" r="4" fill="#333333"/>
    <circle cx="60" cy="280" r="4" fill="#333333"/>
    <circle cx="100" cy="280" r="4" fill="#333333"/>
    <circle cx="140" cy="280" r="4" fill="#333333"/>
    <circle cx="180" cy="280" r="4" fill="#333333"/>
    <circle cx="220" cy="280" r="4" fill="#333333"/>
    <circle cx="260" cy="280" r="4" fill="#333333"/>
    <circle cx="300" cy="280" r="4" fill="#333333"/>
    <circle cx="340" cy="280" r="4" fill="#333333"/>
    <circle cx="380" cy="280" r="4" fill="#333333"/>
    <circle cx="420" cy="280" r="4" fill="#333333"/>
    <circle cx="460" cy="280" r="4" fill="#333333"/>
    <circle cx="500" cy="280" r="4" fill="#333333"/>
    <circle cx="540" cy="280" r="4" fill="#333333"/>
    <circle cx="580" cy="280" r="4" fill="#333333"/>
    <circle cx="620" cy="280" r="4" fill="#333333"/>
    <circle cx="660" cy="280" r="4" fill="#333333"/>
    <circle cx="700" cy="280" r="4" fill="#333333"/>
    <circle cx="740" cy="280" r="4" fill="#333333"/>
    <circle cx="780" cy="280" r="4" fill="#333333"/>
    
    <!-- Hill 1 -->
    <circle cx="100" cy="240" r="4" fill="#333333"/>
    <circle cx="140" cy="240" r="4" fill="#333333"/>
    <circle cx="180" cy="240" r="4" fill="#333333"/>
    <circle cx="220" cy="240" r="4" fill="#333333"/>
    
    <circle cx="140" cy="200" r="4" fill="#333333"/>
    <circle cx="180" cy="200" r="4" fill="#333333"/>
    
    <!-- Hill 2 -->
    <circle cx="340" cy="240" r="4" fill="#333333"/>
    <circle cx="380" cy="240" r="4" fill="#333333"/>
    <circle cx="420" cy="240" r="4" fill="#333333"/>
    <circle cx="460" cy="240" r="4" fill="#333333"/>
    <circle cx="500" cy="240" r="4" fill="#333333"/>
    
    <circle cx="380" cy="200" r="4" fill="#333333"/>
    <circle cx="420" cy="200" r="4" fill="#333333"/>
    <circle cx="460" cy="200" r="4" fill="#333333"/>
    
    <circle cx="420" cy="160" r="4" fill="#333333"/>
    
    <!-- Hill 3 -->
    <circle cx="580" cy="240" r="4" fill="#333333"/>
    <circle cx="620" cy="240" r="4" fill="#333333"/>
    <circle cx="660" cy="240" r="4" fill="#333333"/>
    <circle cx="700" cy="240" r="4" fill="#333333"/>
    
    <circle cx="620" cy="200" r="4" fill="#333333"/>
    <circle cx="660" cy="200" r="4" fill="#333333"/>
    
    <circle cx="640" cy="160" r="4" fill="#333333"/>
  </g>
</svg>
