<?xml version="1.0" encoding="UTF-8"?>
<svg width="400" height="300" viewBox="0 0 400 300" fill="none" xmlns="http://www.w3.org/2000/svg">
  <!-- Stylized hands -->
  <path d="M150 200 C 180 150, 220 150, 250 200" stroke="#333333" stroke-width="4" fill="none"/>
  <path d="M120 180 C 160 120, 240 120, 280 180" stroke="#333333" stroke-width="4" fill="none"/>
  <path d="M100 160 C 150 80, 250 80, 300 160" stroke="#333333" stroke-width="4" fill="none"/>
  
  <!-- Left hand -->
  <path d="M120 220 C 130 210, 140 210, 150 220 L 150 250 C 140 260, 130 260, 120 250 Z" fill="#333333"/>
  <path d="M160 220 C 170 210, 180 210, 190 220 L 190 240 C 180 250, 170 250, 160 240 Z" fill="#333333"/>
  
  <!-- Right hand -->
  <path d="M210 220 C 220 210, 230 210, 240 220 L 240 240 C 230 250, 220 250, 210 240 Z" fill="#333333"/>
  <path d="M250 220 C 260 210, 270 210, 280 220 L 280 250 C 270 260, 260 260, 250 250 Z" fill="#333333"/>
</svg>
