<?xml version="1.0" encoding="UTF-8"?>
<svg width="200" height="50" viewBox="0 0 200 50" fill="none" xmlns="http://www.w3.org/2000/svg">
  <!-- Action buttons background -->
  <rect width="200" height="50" rx="25" fill="#f9f9f9"/>
  <rect x="1" y="1" width="198" height="48" rx="24" stroke="#e0e0e0" stroke-width="1"/>
  
  <!-- Share icon -->
  <g transform="translate(40, 15)">
    <path d="M15 5L9 10L15 15" stroke="#555" stroke-width="2" stroke-linecap="round" stroke-linejoin="round"/>
    <path d="M9 10H19" stroke="#555" stroke-width="2" stroke-linecap="round"/>
    <circle cx="5" cy="10" r="5" fill="none" stroke="#555" stroke-width="2"/>
  </g>
  
  <!-- Save icon -->
  <g transform="translate(100, 15)">
    <path d="M3 3V17H17V7L13 3H3Z" fill="none" stroke="#555" stroke-width="2" stroke-linejoin="round"/>
    <rect x="6" y="3" width="8" height="5" rx="1" fill="none" stroke="#555" stroke-width="2"/>
    <rect x="6" y="11" width="8" height="6" rx="1" fill="none" stroke="#555" stroke-width="2"/>
  </g>
  
  <!-- Print icon -->
  <g transform="translate(160, 15)">
    <rect x="3" y="8" width="14" height="8" rx="1" fill="none" stroke="#555" stroke-width="2"/>
    <path d="M5 8V3H15V8" stroke="#555" stroke-width="2" stroke-linecap="round"/>
    <path d="M5 12H15" stroke="#555" stroke-width="2" stroke-linecap="round"/>
    <path d="M5 15H15" stroke="#555" stroke-width="2" stroke-linecap="round"/>
  </g>
</svg>
